REM DIRINDEX 1\2\6,1\2\7,1\2\8,1\2\9,1\3\10,1\3\11,1\4\12,1\4\13,1\4\14,1\5\15,1\5\16,1\5\17
REM DIRNAME folder01,folder02,folder03,folder04,folder05,folder06,folder07,folder08,folder09,folder10,folder11,folder12,folder13,folder14,folder15,folder16,folder17
TITLE ""
FILE "1400_3_sec08_0701_0717.mp3" MP3
  TRACK 01 AUDIO
    TITLE "0:"
    INDEX 01 00:00:00
  TRACK 02 AUDIO
    TITLE "15:cjc029_5835"
    INDEX 01 00:00:23
  TRACK 03 AUDIO
    TITLE "0:"
    INDEX 01 00:02:06
  TRACK 04 AUDIO
    TITLE "17:cjc029_5836"
    INDEX 01 00:02:59
  TRACK 05 AUDIO
    TITLE "0:"
    INDEX 01 00:04:17
  TRACK 06 AUDIO
    TITLE "16:cjc029_5837"
    INDEX 01 00:04:25
  TRACK 07 AUDIO
    TITLE "0:"
    INDEX 01 00:05:38
  TRACK 08 AUDIO
    TITLE "17:cjc029_5838"
    INDEX 01 00:06:26
  TRACK 09 AUDIO
    TITLE "0:"
    INDEX 01 00:07:47
  TRACK 10 AUDIO
    TITLE "16:cjc029_5839"
    INDEX 01 00:07:54
  TRACK 11 AUDIO
    TITLE "0:"
    INDEX 01 00:09:00
  TRACK 12 AUDIO
    TITLE "17:cjc029_5840"
    INDEX 01 00:09:59
  TRACK 13 AUDIO
    TITLE "0:"
    INDEX 01 00:10:65
  TRACK 14 AUDIO
    TITLE "16:cjc029_5841"
    INDEX 01 00:10:70
  TRACK 15 AUDIO
    TITLE "0:"
    INDEX 01 00:12:16
  TRACK 16 AUDIO
    TITLE "17:cjc029_5842"
    INDEX 01 00:13:00
  TRACK 17 AUDIO
    TITLE "0:"
    INDEX 01 00:14:45
  TRACK 18 AUDIO
    TITLE "16:cjc029_5843"
    INDEX 01 00:14:51
  TRACK 19 AUDIO
    TITLE "0:"
    INDEX 01 00:15:72
  TRACK 20 AUDIO
    TITLE "17:cjc029_5844"
    INDEX 01 00:16:55
  TRACK 21 AUDIO
    TITLE "0:"
    INDEX 01 00:17:53
  TRACK 22 AUDIO
    TITLE "16:cjc029_5845"
    INDEX 01 00:17:61
  TRACK 23 AUDIO
    TITLE "0:"
    INDEX 01 00:19:05
  TRACK 24 AUDIO
    TITLE "17:cjc029_5846"
    INDEX 01 00:19:63
  TRACK 25 AUDIO
    TITLE "0:"
    INDEX 01 00:21:17
  TRACK 26 AUDIO
    TITLE "16:cjc029_5847"
    INDEX 01 00:21:23
  TRACK 27 AUDIO
    TITLE "0:"
    INDEX 01 00:22:40
  TRACK 28 AUDIO
    TITLE "17:cjc029_5848"
    INDEX 01 00:23:26
  TRACK 29 AUDIO
    TITLE "0:"
    INDEX 01 00:26:03
  TRACK 30 AUDIO
    TITLE "16:cjc029_5849"
    INDEX 01 00:26:07
  TRACK 31 AUDIO
    TITLE "0:"
    INDEX 01 00:27:36
  TRACK 32 AUDIO
    TITLE "17:cjc029_5850"
    INDEX 01 00:28:17
  TRACK 33 AUDIO
    TITLE "0:"
    INDEX 01 00:30:61
  TRACK 34 AUDIO
    TITLE "16:cjc029_5851"
    INDEX 01 00:30:67
  TRACK 35 AUDIO
    TITLE "0:"
    INDEX 01 00:32:15
  TRACK 36 AUDIO
    TITLE "17:cjc029_5852"
    INDEX 01 00:32:74
  TRACK 37 AUDIO
    TITLE "0:"
    INDEX 01 00:35:39
  TRACK 38 AUDIO
    TITLE "16:cjc029_5853"
    INDEX 01 00:35:45
  TRACK 39 AUDIO
    TITLE "0:"
    INDEX 01 00:36:62
  TRACK 40 AUDIO
    TITLE "17:cjc029_5854"
    INDEX 01 00:37:46
  TRACK 41 AUDIO
    TITLE "0:"
    INDEX 01 00:38:69
  TRACK 42 AUDIO
    TITLE "16:cjc029_5855"
    INDEX 01 00:39:00
  TRACK 43 AUDIO
    TITLE "0:"
    INDEX 01 00:40:21
  TRACK 44 AUDIO
    TITLE "17:cjc029_5856"
    INDEX 01 00:41:04
  TRACK 45 AUDIO
    TITLE "0:"
    INDEX 01 00:42:06
  TRACK 46 AUDIO
    TITLE "16:cjc029_5857"
    INDEX 01 00:42:14
  TRACK 47 AUDIO
    TITLE "0:"
    INDEX 01 00:43:27
  TRACK 48 AUDIO
    TITLE "17:cjc029_5858"
    INDEX 01 00:44:14
  TRACK 49 AUDIO
    TITLE "0:"
    INDEX 01 00:45:00
  TRACK 50 AUDIO
    TITLE "16:cjc029_5859"
    INDEX 01 00:45:08
  TRACK 51 AUDIO
    TITLE "0:"
    INDEX 01 00:46:00
  TRACK 52 AUDIO
    TITLE "17:cjc029_5860"
    INDEX 01 00:46:58
  TRACK 53 AUDIO
    TITLE "0:"
    INDEX 01 00:47:60
  TRACK 54 AUDIO
    TITLE "16:cjc029_5861"
    INDEX 01 00:47:66
  TRACK 55 AUDIO
    TITLE "0:"
    INDEX 01 00:49:23
  TRACK 56 AUDIO
    TITLE "17:cjc029_5862"
    INDEX 01 00:50:07
  TRACK 57 AUDIO
    TITLE "0:"
    INDEX 01 00:51:09
  TRACK 58 AUDIO
    TITLE "16:cjc029_5863"
    INDEX 01 00:51:13
  TRACK 59 AUDIO
    TITLE "0:"
    INDEX 01 00:52:18
  TRACK 60 AUDIO
    TITLE "17:cjc029_5864"
    INDEX 01 00:53:04
  TRACK 61 AUDIO
    TITLE "0:"
    INDEX 01 00:54:09
  TRACK 62 AUDIO
    TITLE "16:cjc029_5865"
    INDEX 01 00:54:15
  TRACK 63 AUDIO
    TITLE "0:"
    INDEX 01 00:55:50
  TRACK 64 AUDIO
    TITLE "17:cjc029_5866"
    INDEX 01 00:56:33
  TRACK 65 AUDIO
    TITLE "0:"
    INDEX 01 00:57:54
  TRACK 66 AUDIO
    TITLE "16:cjc029_5867"
    INDEX 01 00:57:60
  TRACK 67 AUDIO
    TITLE "0:"
    INDEX 01 00:59:00
  TRACK 68 AUDIO
    TITLE "17:cjc029_5868"
    INDEX 01 00:59:57
  TRACK 69 AUDIO
    TITLE "0:"
    INDEX 01 01:00:66
  TRACK 70 AUDIO
    TITLE "16:cjc029_5869"
    INDEX 01 01:00:70
  TRACK 71 AUDIO
    TITLE "0:"
    INDEX 01 01:02:06
